{"title":"Bride Of Frankenstein(1935)MPEG-4[DaScubaDude]","uid":15035114,"size":753010084,"categoryP":"video","categoryS":"movies","magnet":"?xt=urn:btih:2ffc96f8ad63a7f26c254665c015837d392fdd33&amp;dn=Bride+Of+Frankenstein%281935%29MPEG-4%5BDaScubaDude%5D&amp;tr=udp%3A%2F%2Ftracker.leechers-paradise.org%3A6969&amp;tr=udp%3A%2F%2Fzer0day.ch%3A1337&amp;tr=udp%3A%2F%2Fopen.demonii.com%3A1337&amp;tr=udp%3A%2F%2Ftracker.coppersurfer.tk%3A6969&amp;tr=udp%3A%2F%2Fexodus.desync.com%3A6969","seeders":0,"leechers":1,"uploader":"dascuba","files":1,"time":1466571782,"description":"The Bride of Frankenstein (1935)\r\nBride of Frankenstein (original title)\r\nNot Rated | 1h 15min | Drama, Horror, Sci-Fi | 19 April 1935 (USA)\r\nMary Shelley reveals the main characters of her novel survived: Dr. Frankenstein, goaded by an even madder scientist, builds his monster a mate.\r\nDirector: James Whale\r\nWriters: Mary Shelley (suggested by: the original story written in 1816 by) (as Mary Wollstonecraft Shelley), William Hurlbut (adapted by) \r\nStars: Boris Karloff, Elsa Lanchester, Colin Clive |\r\n\r\nGeneral\r\nComplete name                            : BrideofFrankensteinFRANKENSTEIN_Title2.mp4\r\nFormat                                   : MPEG-4\r\nFormat profile                           : Base Media\r\nCodec ID                                 : isom (isom/iso2/avc1/mp41)\r\nFile size                                : 718 MiB\r\nDuration                                 : 1h 14mn\r\nOverall bit rate                         : 1 343 Kbps\r\nMovie name                               : FRANKENSTEIN_Title2\r\nWriting application                      : Lavf54.6.100\r\n\r\nVideo\r\nID                                       : 1\r\nFormat                                   : AVC\r\nFormat/Info                              : Advanced Video Codec\r\nFormat profile                           :   \r\nFormat settings, CABAC                   : No\r\nFormat settings, ReFrames                : 6 frames\r\nCodec ID                                 : avc1\r\nCodec ID/Info                            : Advanced Video Coding\r\nDuration                                 : 1h 14mn\r\nBit rate                                 : 1 201 Kbps\r\nWidth                                    : 720 pixels\r\nHeight                                   : 540 pixels\r\nDisplay aspect ratio                     : 4:3\r\nFrame rate mode                          : Constant\r\nFrame rate                               : 29.970 (30000/1001) fps\r\nColor space                              : YUV\r\nChroma subsampling                       : 4:2:0\r\nBit depth                                : 8 bits\r\nScan type                                : Progressive\r\nBits/(Pixel*Frame)                       : 0.103\r\nStream size                              : 642 MiB (89%)\r\n\r\nAudio\r\nID                                       : 2\r\nFormat                                   : AAC\r\nFormat/Info                              : Advanced Audio Codec\r\nFormat profile                           : LC\r\nCodec ID                                 : 40\r\nDuration                                 : 1h 14mn\r\nBit rate mode                            : Constant\r\nBit rate                                 : 135 Kbps\r\nChannel(s)                               : 2 channels\r\nChannel positions                        : Front: L R\r\nSampling rate                            : 44.1 KHz\r\nFrame rate                               : 43.066 fps (1024 spf)\r\nCompression mode                         : Lossy\r\nStream size                              : 72.3 MiB (10%)\r\nDefault                                  : Yes\r\nAlternate group                          : 1","torrent":{"xt":"urn:btih:2ffc96f8ad63a7f26c254665c015837d392fdd33","amp;dn":"Bride+Of+Frankenstein%281935%29MPEG-4%5BDaScubaDude%5D","amp;tr":["udp%3A%2F%2Ftracker.leechers-paradise.org%3A6969","udp%3A%2F%2Fzer0day.ch%3A1337","udp%3A%2F%2Fopen.demonii.com%3A1337","udp%3A%2F%2Ftracker.coppersurfer.tk%3A6969","udp%3A%2F%2Fexodus.desync.com%3A6969"],"infoHash":"2ffc96f8ad63a7f26c254665c015837d392fdd33","infoHashBuffer":{"type":"Buffer","data":[47,252,150,248,173,99,167,242,108,37,70,101,192,21,131,125,57,47,221,51]},"announce":[],"urlList":[]}}